<?xml version="1.0" encoding="utf-8"?>
<!-- Generator: Adobe Illustrator 18.1.0, SVG Export Plug-In . SVG Version: 6.00 Build 0)  -->
<svg version="1.1" baseProfile="tiny" id="Layer_1" xmlns="http://www.w3.org/2000/svg" xmlns:xlink="http://www.w3.org/1999/xlink"
	 x="0px" y="0px" viewBox="0 0 383.2 792" xml:space="preserve">
	<path id="bezel_2_" sketch:type="MSShapeGroup" fill="#010101" stroke="#7F89A3" stroke-width="2" d="M-197.3,563.2
		c0,25.1-20.5,45.5-45.7,45.5h-278.5c-25.2,0-45.7-20.4-45.7-45.5v-688.4c0-25.1,20.5-45.5,45.7-45.5H-243
		c25.2,0,45.7,20.4,45.7,45.5V563.2L-197.3,563.2z"/>
	
		<rect id="screen_2_" x="-541.6" y="-68.5" sketch:type="MSShapeGroup" fill="#FFFFFF" stroke="#7F89A3" width="318.5" height="566.6">
	</rect>
	<path id="speaker" sketch:type="MSShapeGroup" fill="#FFFFFF" stroke="#7F89A3" d="M-348.1-97.6c0,1.8-1.2,3.3-2.8,3.3h-57.2
		c-1.5,0-2.8-1.5-2.8-3.3v-7.3c0-1.8,1.2-3.3,2.8-3.3h57.2c1.5,0,2.8,1.5,2.8,3.3V-97.6L-348.1-97.6z"/>
	<circle id="camera_1_" sketch:type="MSShapeGroup" fill="#FFFFFF" stroke="#7F89A3" cx="-379.4" cy="-136.8" r="8.5">
	</circle>
	<ellipse id="lock_1_" sketch:type="MSShapeGroup" fill="none" stroke="#7F89A3" cx="-382.1" cy="551.9" rx="28.6" ry="28.5">
	</ellipse>
</svg>
